# xmcd
#
# Track frame offsets:
#	225
#	10066
#	22538
#	34733
#	45928
#	60156
#	71647
#	85176
#	98556
#
# Disc length: 1518 seconds
#
# Revision: 1
# Processed by: cddbd v1.5.2PL0 Copyright (c) Steve Scherf et al.
# Submitted via: audiograbber 1.83.01
#
DISCID=5405eb09
DTITLE=Alex and the Paid holiday - Swinging in the Rain (Special Edition)
DYEAR=2002
DGENRE=Swing
TTITLE0=All Right, Okay, You Win
TTITLE1=Choo Choo Ch´Boogie
TTITLE2=Saturday Night Fish Fry
TTITLE3=Is You Is, Or Is You Ain´t
TTITLE4=I´m Beginning SeeThe Light
TTITLE5=Knock Me A Kiss
TTITLE6=The Man Who Unterstood Women
TTITLE7=I Just Wanna Make Love To You
TTITLE8=I´m Ready
EXTD=
EXTT0=
EXTT1=
EXTT2=
EXTT3=
EXTT4=
EXTT5=
EXTT6=
EXTT7=
EXTT8=
PLAYORDER=
